# xmcd
#
# Track frame offsets:
# 150
# 13879
# 30229
# 45361
# 60288
# 74035
#
# Disc length: 1234 seconds
#
#
# Revision: 0
# Processed by: cddbd v1.5.2PL0 Copyright (c) Steve Scherf et al.
# Submitted via: FreeRIP 2.945 
#
DISCID=4404d006
DTITLE=Travis List - It's Not Easy
DYEAR=2004
DGENRE=Country
TTITLE0=It's Not Easy
TTITLE1=Forgiven Myself Away
TTITLE2=All things Considered
TTITLE3=Top Shelf Down
TTITLE4=Single Barrel Blues
TTITLE5=Country Singers Blues
EXTD=www.travislist.com
EXTT0=
EXTT1=
EXTT2=
EXTT3=
EXTT4=
EXTT5=
PLAYORDER=
